<svg xmlns="http://www.w3.org/2000/svg" aria-hidden="true" style="position:absolute;width:0;height:0;overflow:hidden">
  <defs>
    <symbol id="icon-close" viewBox="0 0 32 32">
      <path fill="none" stroke="#a2a2a2" stroke-linecap="round" stroke-width="2.909" d="M30.105 30.105 1.894 1.894M1.895 30.105 30.106 1.894" style="stroke:var(--color1, #a2a2a2)"/>
    </symbol>
    <symbol id="icon-left-arrow" viewBox="0 0 32 32">
      <path fill="none" stroke="#6b6b6b" stroke-width=".5" d="M16 .25C24.698.25 31.75 7.301 31.75 16S24.698 31.75 16 31.75.25 24.698.25 16 7.301.25 16 .25z" style="stroke:var(--color2, #6b6b6b)"/>
      <path fill="none" stroke="#f3561d" stroke-linecap="round" stroke-linejoin="round" stroke-width=".5" d="M22.5 16h-13m0 0 4.875 5M9.5 16l4.875-5" style="stroke:var(--color3, #f3561d)"/>
    </symbol>
    <symbol id="icon-logo" viewBox="0 0 32 32">
      <path stroke-width=".727" d="M22.58 19.844a4.877 4.877 0 0 0 2.059-2.375c.437-.99.655-2.108.655-3.354 0-1.286-.218-2.424-.655-3.414S23.516 8.94 22.58 8.386s-2.173-.831-3.713-.831h-3.869v13.15h.831m6.751 3.518a10.467 10.467 0 0 0 2.184-.817c1.643-.831 2.891-2.028 3.744-3.592.874-1.563 1.31-3.473 1.31-5.729 0-2.216-.426-4.106-1.279-5.67-.832-1.544-2.059-2.731-3.681-3.562-1.622-.811-3.609-1.217-5.959-1.217h-8.361v19.161"/>
      <path stroke-width=".727" d="M9.419 12.156a4.873 4.873 0 0 0-2.059 2.375c-.437.989-.655 2.108-.655 3.354 0 1.286.218 2.424.655 3.414s1.123 1.761 2.059 2.315 2.173.831 3.713.831H17v-13.15h-.831m-6.75-3.518c-.786.201-1.514.474-2.184.817-1.643.831-2.891 2.028-3.744 3.592-.874 1.563-1.31 3.473-1.31 5.729 0 2.216.426 4.106 1.279 5.67.832 1.544 2.059 2.731 3.681 3.562 1.622.811 3.609 1.217 5.959 1.217h8.361V9.203"/>
    </symbol>
    <symbol id="icon-menu" viewBox="0 0 32 32">
      <path fill="none" stroke="#a2a2a2" stroke-linecap="round" stroke-width="1.454" d="M24.727 21.818H7.272M24.727 16H7.272M24.727 10.182H7.272" style="stroke:var(--color1, #a2a2a2)"/>
    </symbol>
    <symbol id="icon-right-arrow" viewBox="0 0 32 32">
      <path fill="none" stroke="#6b6b6b" stroke-width=".5" d="M16 .25C24.698.25 31.75 7.301 31.75 16S24.698 31.75 16 31.75.25 24.698.25 16 7.301.25 16 .25z" style="stroke:var(--color2, #6b6b6b)"/>
      <path fill="none" stroke="#f3561d" stroke-linecap="round" stroke-linejoin="round" stroke-width=".5" d="M9.5 16h13m0 0-4.875 5m4.875-5-4.875-5" style="stroke:var(--color3, #f3561d)"/>
    </symbol>
    <symbol id="icon-creativity" viewBox="0 0 32 32">
      <path fill="#f3561d" d="M30.416 7.241c.383 0 .695.317.695.706s-.313.706-.695.706c-.383 0-.695-.318-.695-.706s.313-.706.695-.706zm-2.679-6.146c.383 0 .695.318.695.706s-.313.706-.695.706c-.383 0-.695-.317-.695-.706s.313-.706.695-.706zm-6.605 27.967a.762.762 0 0 1-.747.749h-9.363c-.401 0-.747-.346-.747-.749s.345-.749.747-.749h9.363c.401.057.747.403.747.749zm-2.53 2.189a.762.762 0 0 1-.747.749h-4.308c-.401 0-.747-.346-.747-.749s.345-.749.747-.749h4.308c.401 0 .747.346.747.749zm-3.034-5.767h-3.804c-.056-2.189-1.204-3.459-2.931-4.729-2.931-2.189-4.654-5.592-4.598-9.283C4.235 5.222 9.29.057 15.563 0h.275c6.301.033 11.384 5.184 11.384 11.534 0 3.634-1.722 7.094-4.654 9.226-1.666 1.27-2.814 2.535-2.875 4.729h-4.126v-.005zm0-22.508c-2.226.062-4.238 1.042-5.704 2.592-1.517 1.602-2.455 3.81-2.455 6.255 0 2.44.938 4.653 2.455 6.255 1.47 1.55 3.477 2.53 5.704 2.592.075 0 .149.005.224.005 2.315 0 4.411-.99 5.928-2.597 1.517-1.602 2.455-3.81 2.455-6.255 0-2.44-.938-4.653-2.455-6.255s-3.613-2.597-5.928-2.597c-.075 0-.149 0-.224.005zm0 16.443h.807a.69.69 0 0 0 .681-.692v-1.294a.698.698 0 0 0-.378-.621 4.717 4.717 0 0 0 2.488-1.403c.859-.919 1.396-2.189 1.396-3.592s-.532-2.673-1.396-3.592a4.738 4.738 0 0 0-2.012-1.284v-.825a.69.69 0 0 0-.681-.692h-1.484a.69.69 0 0 0-.681.692v.867a4.756 4.756 0 0 0-1.89 1.242c-.859.919-1.396 2.189-1.396 3.592s.532 2.673 1.396 3.592a4.674 4.674 0 0 0 2.413 1.388.702.702 0 0 0-.411.635v1.294a.69.69 0 0 0 .681.692h.467zm0-16.055c.075 0 .149-.005.224-.005 2.208 0 4.205.948 5.657 2.474 1.447 1.531 2.348 3.649 2.348 5.985s-.896 4.454-2.348 5.985c-1.447 1.531-3.445 2.474-5.657 2.474-.075 0-.149 0-.224-.005-2.119-.062-4.033-.995-5.433-2.474-1.447-1.531-2.348-3.649-2.348-5.985s.896-4.454 2.348-5.985c1.4-1.478 3.314-2.412 5.433-2.474v.009zm0 12.458h.299a.68.68 0 0 0 .677-.626l.611-6.449c0-.024.005-.043.005-.066V7.354a4.313 4.313 0 0 1 1.736 1.142 4.854 4.854 0 0 1 1.288 3.327c0 1.298-.49 2.473-1.288 3.326-.793.848-1.89 1.369-3.099 1.369-.075 0-.149 0-.224-.005-1.12-.062-2.128-.569-2.875-1.365a4.858 4.858 0 0 1-1.288-3.326c0-1.298.49-2.474 1.288-3.327a4.379 4.379 0 0 1 1.61-1.095v1.279c0 .024 0 .043.005.066l.621 6.449a.686.686 0 0 0 .639.626h-.005zm5.564 11.103a.762.762 0 0 1-.747.749h-9.307c-.401 0-.747-.346-.747-.749s.345-.749.747-.749h9.368c.345 0 .691.346.691.749h-.005zm5.265-2.336c-.91 0-1.662.763-1.662 1.687s.751 1.687 1.662 1.687c.91 0 1.662-.763 1.662-1.687s-.751-1.687-1.662-1.687zm-22.129 0c-1.288 0-2.357 1.09-2.357 2.393s1.074 2.393 2.357 2.393c1.284 0 2.357-1.09 2.357-2.393 0-1.308-1.074-2.393-2.357-2.393zm24.108-3.753c.383 0 .695.317.695.706s-.313.706-.695.706c-.383 0-.695-.317-.695-.706s.313-.706.695-.706zm-6.003 6.8c.383 0 .695.317.695.706s-.313.706-.695.706c-.383 0-.695-.317-.695-.706s.313-.706.695-.706zM8.058 29.607c.383 0 .695.317.695.706s-.313.706-.695.706-.695-.317-.695-.706c0-.389.313-.706.695-.706zM1.584 19.476c.383 0 .695.317.695.706s-.313.706-.695.706-.695-.317-.695-.706c0-.389.313-.706.695-.706zM4.263 1.801c.383 0 .695.317.695.706s-.313.706-.695.706c-.383 0-.695-.317-.695-.706s.313-.706.695-.706z" style="fill:var(--color1, #f3561d)"/>
    </symbol>
    <symbol id="icon-innovation" viewBox="0 0 32 32">
      <path fill="#f3561d" d="M11.637 22.504c0 .11.054.224.108.279s.22.11.328.169v-.837c-.274.055-.441.169-.441.389h.005zm-7.679 6.031c-.768 0-1.37.613-1.37 1.396s.602 1.396 1.37 1.396 1.37-.613 1.37-1.396c0-.783-.602-1.396-1.37-1.396zm21.608-17.482c.93 0 1.698-.783 1.698-1.73 0-.952-.768-1.73-1.698-1.73-.935 0-1.698.783-1.698 1.73 0 .952.768 1.73 1.698 1.73zM12.459 26.806h-.441v-.837c-.328 0-.602-.11-.876-.169a5.552 5.552 0 0 1-.822-.389l.494-.947s.054.055.166.11c.054.055.166.11.274.169.113.055.274.115.382.169.166.055.328.11.441.11v-.892l-.328-.11c-.22-.055-.382-.169-.548-.224s-.274-.169-.382-.279c-.108-.11-.166-.224-.22-.334s-.054-.279-.054-.449c0-.224.054-.449.108-.613a.887.887 0 0 1 .328-.449c.108-.11.274-.224.494-.279.166-.055.382-.11.602-.169v-.668h.44v.668c.274 0 .548.11.822.169.274.11.494.224.656.334l-.494.892-.108-.11a.417.417 0 0 0-.22-.11c-.108-.055-.22-.11-.328-.11-.113-.055-.22-.055-.382-.11v.892l.22.055c.22.055.441.11.602.224.166.055.328.169.44.279.108.11.22.224.274.389.054.169.108.334.108.558 0 .279-.054.449-.108.668a3.23 3.23 0 0 1-.328.449c-.166.11-.328.224-.494.279-.274 0-.494 0-.714.055v.783l-.005-.005zm7.625-3.52c-.166 0-.328.169-.328.334 0 4.133-3.181 7.487-7.185 7.652V28.59c2.521-.169 4.552-2.348 4.552-4.97 0-2.627-2.031-4.806-4.552-4.97v-3.071c0-.169-.166-.334-.328-.334-4.552 0-8.227 3.744-8.227 8.38 0 .169.166.334.328.334.166 0 .328-.169.328-.334 0-4.133 3.181-7.487 7.185-7.652v2.682c-2.521.169-4.552 2.348-4.552 4.97 0 2.627 2.031 4.805 4.552 4.97v3.071c0 .169.166.334.328.334 4.552 0 8.227-3.744 8.227-8.38 0-.169-.166-.334-.328-.334zM1.603 25.355c.392 0 .715.324.715.728a.722.722 0 0 1-.715.728.722.722 0 0 1-.715-.728c0-.399.318-.728.715-.728zm20.566 4.187c.392 0 .715.324.715.728a.722.722 0 0 1-.715.728.722.722 0 0 1-.715-.728c0-.399.318-.728.715-.728zm4.772-2.123c.392 0 .715.324.715.728a.722.722 0 0 1-.715.728.722.722 0 0 1-.715-.728c0-.399.318-.728.715-.728zm-9.598-10.444c.392 0 .715.324.715.728a.722.722 0 0 1-.715.728.722.722 0 0 1-.715-.728c0-.399.318-.728.715-.728zM3.635 5.076c.392 0 .715.324.715.728a.722.722 0 0 1-.715.728.722.722 0 0 1-.715-.728c0-.399.318-.728.715-.728zM13.947.889c.392 0 .715.324.715.728a.722.722 0 0 1-.715.728.722.722 0 0 1-.715-.728c0-.399.318-.728.715-.728zm13.709 2.123c.392 0 .715.324.715.728a.722.722 0 0 1-.715.728.722.722 0 0 1-.715-.728c0-.399.318-.728.715-.728zm2.741 13.963c.392 0 .715.324.715.728a.722.722 0 0 1-.715.728.722.722 0 0 1-.715-.728c0-.399.318-.728.715-.728zm-25.392-6.59c.93 0 1.698.783 1.698 1.73 0 .169.166.334.328.334.166 0 .328-.169.328-.334 0-.952.768-1.73 1.698-1.73.166 0 .328-.169.328-.334 0-.169-.166-.334-.328-.334-.935 0-1.698-.783-1.698-1.73 0-.17-.166-.334-.328-.334-.166 0-.328.17-.328.334 0 .947-.768 1.73-1.698 1.73-.166 0-.328.169-.328.334 0 .169.166.334.328.334zM3.307 15.58c0 .169.166.334.328.334.166 0 .328-.169.328-.334 0-.558.44-1.062 1.042-1.062.166 0 .328-.169.328-.334 0-.169-.166-.334-.328-.334a1.053 1.053 0 0 1-1.042-1.062c0-.169-.166-.334-.328-.334-.166 0-.328.169-.328.334 0 .558-.441 1.062-1.042 1.062-.166 0-.328.169-.328.334 0 .169.166.334.328.334.548.055 1.042.503 1.042 1.062zM8.152 4.603l1.938-1.974 2.907 2.961-1.938 1.974-2.907-2.961zm3.382 3.494 1.938-1.974 16.479 16.784-1.938 1.974L11.534 8.097zm1.258 16.306a3.174 3.174 0 0 0-.382-.169v.783c.328 0 .494-.11.494-.334 0-.169-.054-.224-.108-.279h-.005z" style="fill:var(--color1, #f3561d)"/>
    </symbol>
    <symbol id="icon-performance" viewBox="0 0 32 32">
      <path fill="#f3561d" d="M14.351 30.137c0 .579.458 1.105 1.092 1.105.629 0 1.092-.463 1.092-1.105v-4.005h-2.18v4.005h-.005zM3.964 14.516h2.18c.172 0 .343.174.343.347s-.172.347-.343.347H3.965c-.172 0-.343-.174-.343-.347s.114-.347.343-.347zm0-2.148h2.18c.172 0 .343.174.343.347s-.172.347-.343.347H3.965c-.172 0-.343-.174-.343-.347 0-.232.114-.347.343-.347zm6.715 4.416 4.073 4.121 7.693-7.142h-1.207c-.172 0-.343-.174-.343-.347s.172-.347.343-.347H23.816v2.553c0 .174-.172.347-.343.347s-.343-.174-.343-.347v-1.395l-8.151 7.432a.432.432 0 0 1-.229.116c-.114 0-.172-.058-.229-.116l-4.13-4.121-4.073 3.426c-.172.116-.401.116-.515-.058s-.114-.405.057-.521l4.307-3.658a.55.55 0 0 1 .515.058h-.005zm6.887 6.795a.768.768 0 0 1-.749-.758c0-.405.343-.753.749-.753.401 0 .744.347.744.753s-.343.758-.744.758zM2.185 22.532h8.952c.172 0 .343.174.343.347s-.172.347-.343.347H2.185c.057 1.221 1.035 2.205 2.237 2.205h22.039c1.207 0 2.18-.989 2.237-2.205h-8.952c-.172 0-.343-.174-.343-.347s.172-.347.343-.347h8.952V10.916H2.18v11.616h.005zm27.262-12.369c.801 0 1.436-.637 1.436-1.453a1.43 1.43 0 0 0-1.436-1.453H1.436C.635 7.257 0 7.894 0 8.71a1.43 1.43 0 0 0 1.436 1.453h28.011zM7.922 30.489a.763.763 0 0 0-.744.758c0 .405.343.753.744.753s.744-.347.744-.753c-.057-.405-.401-.758-.744-.758zM25.831 2.905c.801 0 1.436-.637 1.436-1.453a1.43 1.43 0 0 0-1.436-1.453c-.801 0-1.436.637-1.436 1.453a1.43 1.43 0 0 0 1.436 1.453zm4.188 25.032c-.572 0-1.092.463-1.092 1.105 0 .637.458 1.105 1.092 1.105.629 0 1.092-.463 1.092-1.105 0-.637-.458-1.105-1.092-1.105zM5.394 3.663c.572 0 1.092-.463 1.092-1.105 0-.637-.515-1.105-1.092-1.105-.572 0-1.092.463-1.092 1.105 0 .637.458 1.105 1.092 1.105zm11.137 1.048c0-.579-.458-1.105-1.092-1.105-.629 0-1.092.463-1.092 1.105v1.8h2.18v-1.8h.005z" style="fill:var(--color1, #f3561d)"/>
    </symbol>
    <symbol id="icon-transparency" viewBox="0 0 32 32">
      <path fill="#f3561d" d="M16.01 20.777c-2.211 0-4.015-1.792-4.015-3.988 0-2.139 1.747-3.931 3.901-3.988h.23c2.154.057 3.901 1.792 3.901 3.988s-1.804 3.988-4.015 3.988zM2.211 7.073c.991 0 1.804-.808 1.804-1.792s-.814-1.792-1.804-1.792c-.991 0-1.804.808-1.804 1.792s.756 1.792 1.804 1.792zm25.094-.751a2.2 2.2 0 0 0 2.211-2.196c0-1.217-1.048-2.139-2.211-2.139-1.22 0-2.211.984-2.211 2.196s.991 2.139 2.211 2.139zM4.365 25.868c-.991 0-1.804.808-1.804 1.792s.814 1.792 1.804 1.792 1.804-.808 1.804-1.792-.814-1.792-1.804-1.792zM.756 22.574c.417 0 .756.337.756.751s-.339.751-.756.751S0 23.739 0 23.325s.339-.751.756-.751zm11.645 7.924c.417 0 .756.337.756.751s-.339.751-.756.751-.756-.337-.756-.751.339-.751.756-.751zm13.1-1.445c.417 0 .756.337.756.751s-.339.751-.756.751-.756-.337-.756-.751.339-.751.756-.751zm5.064-5.785c.417 0 .756.337.756.751s-.339.751-.756.751-.756-.337-.756-.751.339-.751.756-.751zM2.206 8.119c.417 0 .756.337.756.751s-.339.751-.756.751-.756-.337-.756-.751.339-.751.756-.751zm10.19-5.091c.417 0 .756.337.756.751s-.339.751-.756.751-.756-.337-.756-.751.339-.751.756-.751zm17.47 5.091c.417 0 .756.337.756.751s-.339.751-.756.751-.756-.337-.756-.751.339-.751.756-.751zM21.83.889c.417 0 .756.337.756.751s-.339.751-.756.751-.756-.337-.756-.751.339-.751.756-.751zm-5.825 23.534c-4.193 0-7.629-3.413-7.629-7.577s3.437-7.634 7.629-7.634 7.629 3.413 7.629 7.577-3.437 7.634-7.629 7.634zm15.952-7.805c-3.901-6.07-9.726-9.54-15.952-9.54-6.232 0-12.052 3.47-15.952 9.54a.499.499 0 0 0 0 .404c3.901 6.07 9.726 9.54 15.952 9.54 6.232 0 12.052-3.47 15.952-9.54a.499.499 0 0 0 0-.404zm-14.205-2.6c.057.176.115.404.115.58 0 .984-.814 1.792-1.804 1.792s-1.804-.808-1.804-1.792c0-.233.057-.404.115-.58-.933.58-1.575 1.621-1.575 2.776 0 1.792 1.455 3.237 3.259 3.237s3.259-1.445 3.259-3.237c-.057-1.155-.641-2.196-1.57-2.776h.005zm-1.747 1.735c.584 0 1.106-.461 1.106-1.098s-.527-1.098-1.106-1.098c-.584 0-1.105.461-1.105 1.098s.527 1.098 1.105 1.098zm0-5.785c-3.786 0-6.931 3.066-6.931 6.883s3.145 6.826 6.931 6.826 6.931-3.066 6.931-6.883-3.087-6.826-6.931-6.826z" style="fill:var(--color1, #f3561d)"/>
    </symbol>
  </defs>
</svg>
