<svg xmlns="http://www.w3.org/2000/svg" aria-hidden="true" style="position:absolute;width:0;height:0;overflow:hidden">
  <defs>
    <symbol id="icon-close" viewBox="0 0 32 32">
      <path fill="none" stroke="#a2a2a2" stroke-linecap="round" stroke-width="2.909" d="M30.105 30.105 1.894 1.894M1.895 30.105 30.106 1.894" style="stroke:var(--color1, #a2a2a2)"/>
    </symbol>
    <symbol id="icon-left-arrow" viewBox="0 0 32 32">
      <path fill="none" stroke="#6b6b6b" stroke-width=".5" d="M16 .25C24.698.25 31.75 7.301 31.75 16S24.698 31.75 16 31.75.25 24.698.25 16 7.301.25 16 .25z" style="stroke:var(--color2, #6b6b6b)"/>
      <path fill="none" stroke="#f3561d" stroke-linecap="round" stroke-linejoin="round" stroke-width=".5" d="M22.5 16h-13m0 0 4.875 5M9.5 16l4.875-5" style="stroke:var(--color3, #f3561d)"/>
    </symbol>
    <symbol id="icon-logo" viewBox="0 0 32 32">
      <path stroke-width=".727" d="M22.58 19.844a4.877 4.877 0 0 0 2.059-2.375c.437-.99.655-2.108.655-3.354 0-1.286-.218-2.424-.655-3.414S23.516 8.94 22.58 8.386s-2.173-.831-3.713-.831h-3.869v13.15h.831m6.751 3.518a10.467 10.467 0 0 0 2.184-.817c1.643-.831 2.891-2.028 3.744-3.592.874-1.563 1.31-3.473 1.31-5.729 0-2.216-.426-4.106-1.279-5.67-.832-1.544-2.059-2.731-3.681-3.562-1.622-.811-3.609-1.217-5.959-1.217h-8.361v19.161"/>
      <path stroke-width=".727" d="M9.419 12.156a4.873 4.873 0 0 0-2.059 2.375c-.437.989-.655 2.108-.655 3.354 0 1.286.218 2.424.655 3.414s1.123 1.761 2.059 2.315 2.173.831 3.713.831H17v-13.15h-.831m-6.75-3.518c-.786.201-1.514.474-2.184.817-1.643.831-2.891 2.028-3.744 3.592-.874 1.563-1.31 3.473-1.31 5.729 0 2.216.426 4.106 1.279 5.67.832 1.544 2.059 2.731 3.681 3.562 1.622.811 3.609 1.217 5.959 1.217h8.361V9.203"/>
    </symbol>
    <symbol id="icon-menu" viewBox="0 0 32 32">
      <path fill="none" stroke="#a2a2a2" stroke-linecap="round" stroke-width="1.454" d="M24.727 21.818H7.272M24.727 16H7.272M24.727 10.182H7.272" style="stroke:var(--color1, #a2a2a2)"/>
    </symbol>
    <symbol id="icon-right-arrow" viewBox="0 0 32 32">
      <path fill="none" stroke="#6b6b6b" stroke-width=".5" d="M16 .25C24.698.25 31.75 7.301 31.75 16S24.698 31.75 16 31.75.25 24.698.25 16 7.301.25 16 .25z" style="stroke:var(--color2, #6b6b6b)"/>
      <path fill="none" stroke="#f3561d" stroke-linecap="round" stroke-linejoin="round" stroke-width=".5" d="M9.5 16h13m0 0-4.875 5m4.875-5-4.875-5" style="stroke:var(--color3, #f3561d)"/>
    </symbol>
    <symbol id="icon-logo" viewBox="0 0 44 44">
       <path d="M31.048 27.2857C32.3635 26.4966 33.3072 25.4082 33.8792 24.0204C34.4798 22.6599 34.78 21.1224 34.78 19.4082C34.78 17.6394 34.4798 16.0748 33.8792 14.7143C33.2786 13.3537 32.3349 12.2925 31.048 11.5306C29.7611 10.7687 28.0595 10.3877 25.9432 10.3877H20.624V28.4694H21.7669M31.048 33.3066C32.1293 33.0296 33.1302 32.6553 34.0508 32.1837C36.31 31.0408 38.0259 29.3946 39.1984 27.2449C40.3995 25.0952 41.0001 22.4694 41.0001 19.3673C41.0001 16.3197 40.4138 13.7211 39.2413 11.5714C38.0974 9.44896 36.4101 7.81631 34.1795 6.67345C31.9488 5.55781 29.2177 4.99998 25.9861 4.99998H14.4897V31.3469" stroke="url(#paint0_linear_10010_39)" />
         <path d="M12.9515 16.7143C11.636 17.5034 10.6923 18.5918 10.1203 19.9796C9.51976 21.3401 9.21948 22.8776 9.21948 24.5918C9.21948 26.3606 9.51976 27.9252 10.1203 29.2857C10.7209 30.6463 11.6646 31.7075 12.9515 32.4694C14.2384 33.2313 15.94 33.6123 18.0563 33.6123H23.3755V15.5306H22.2326M12.9515 10.6934C11.8702 10.9704 10.8693 11.3447 9.94873 11.8163C7.68949 12.9592 5.97361 14.6054 4.80109 16.7551C3.59997 18.9048 2.99941 21.5306 2.99941 24.6327C2.99941 27.6803 3.58567 30.2789 4.75819 32.4286C5.90211 34.551 7.58939 36.1837 9.82004 37.3265C12.0507 38.4422 14.7818 39 18.0134 39H29.5098V12.6531" stroke="url(#paint1_linear_10010_39)" />
      <defs>
        <linearGradient id="paint0_linear_10010_39" x1="27.7449" y1="4.99998" x2="27.7449" y2="33.3066" gradientUnits="userSpaceOnUse">
          <stop stop-color="#DB8814" />
          <stop offset="1" stop-color="#E28300" stop-opacity="0.1" />
        </linearGradient>
        <linearGradient id="paint1_linear_10010_39" x1="16.2546" y1="39" x2="16.2546" y2="10.6934" gradientUnits="userSpaceOnUse">
          <stop stop-color="#DB8814" />
          <stop offset="1" stop-color="#E28300" stop-opacity="0.1" />
        </linearGradient>
      </defs>
    </symbol>
  </defs>
</svg>
